<svg width="32" height="32" viewBox="0 0 32 32" fill="none" xmlns="http://www.w3.org/2000/svg">
<path d="M14.2854 2.85742H3.42829C3.11401 2.85742 2.85686 3.11456 2.85686 3.42885V14.286C2.85686 14.6003 3.11401 14.8574 3.42829 14.8574H14.2854C14.5997 14.8574 14.8569 14.6003 14.8569 14.286V3.42885C14.8569 3.11456 14.5997 2.85742 14.2854 2.85742ZM12.4283 12.4289H5.28544V5.28599H12.4283V12.4289ZM28.5712 2.85742H17.714C17.3997 2.85742 17.1426 3.11456 17.1426 3.42885V14.286C17.1426 14.6003 17.3997 14.8574 17.714 14.8574H28.5712C28.8854 14.8574 29.1426 14.6003 29.1426 14.286V3.42885C29.1426 3.11456 28.8854 2.85742 28.5712 2.85742ZM26.714 12.4289H19.5711V5.28599H26.714V12.4289ZM28.5712 17.1431H17.714C17.3997 17.1431 17.1426 17.4003 17.1426 17.7146V28.5717C17.1426 28.886 17.3997 29.1431 17.714 29.1431H28.5712C28.8854 29.1431 29.1426 28.886 29.1426 28.5717V17.7146C29.1426 17.4003 28.8854 17.1431 28.5712 17.1431ZM26.714 26.7146H19.5711V19.5717H26.714V26.7146ZM12.8569 23.1431H8.28544V18.5717C8.28544 18.4146 8.15686 18.286 7.99972 18.286H6.28544C6.12829 18.286 5.99972 18.4146 5.99972 18.5717V23.1431H1.42829C1.27115 23.1431 1.14258 23.2717 1.14258 23.4289V25.1431C1.14258 25.3003 1.27115 25.4289 1.42829 25.4289H5.99972V30.0003C5.99972 30.1574 6.12829 30.286 6.28544 30.286H7.99972C8.15686 30.286 8.28544 30.1574 8.28544 30.0003V25.4289H12.8569C13.014 25.4289 13.1426 25.3003 13.1426 25.1431V23.4289C13.1426 23.2717 13.014 23.1431 12.8569 23.1431Z" fill="black"/>
</svg>
