<svg width="32" height="32" viewBox="0 0 32 32" fill="none" xmlns="http://www.w3.org/2000/svg">
<path d="M28.8564 14.6433H7.95998L20.4671 3.78613C20.6671 3.61113 20.5457 3.28613 20.2814 3.28613H17.1207C16.9814 3.28613 16.8493 3.33613 16.7457 3.42542L3.24927 15.1361C3.12565 15.2433 3.02652 15.3757 2.95858 15.5246C2.89063 15.6734 2.85547 15.835 2.85547 15.9986C2.85547 16.1622 2.89063 16.3239 2.95858 16.4727C3.02652 16.6215 3.12565 16.754 3.24927 16.8611L16.8243 28.6433C16.8778 28.6897 16.9421 28.7147 17.01 28.7147H20.2778C20.5421 28.7147 20.6636 28.3861 20.4636 28.2147L7.95998 17.3576H28.8564C29.0136 17.3576 29.1421 17.229 29.1421 17.0718V14.929C29.1421 14.7718 29.0136 14.6433 28.8564 14.6433Z" fill="black"/>
</svg>
