<svg width="176" height="46" viewBox="0 0 176 46" fill="none" xmlns="http://www.w3.org/2000/svg">
<path d="M2.55078 36.0973V8.73242H8.34223V36.0973H2.55078Z" fill="#333333"/>
<path d="M23.5685 31.9237C24.5649 31.9237 25.7605 31.7053 27.1555 31.2686V35.5174C25.7356 36.1537 23.992 36.472 21.9245 36.472C19.6453 36.472 17.9826 35.8981 16.9364 34.75C15.9027 33.5895 15.3858 31.855 15.3858 29.5465V19.4578H12.6582V17.0433L15.7967 15.1342L17.4408 10.7168H21.0838V15.1715H26.9313V19.4578H21.0838V29.5465C21.0838 30.3576 21.308 30.9566 21.7564 31.3434C22.2172 31.7302 22.8213 31.9237 23.5685 31.9237Z" fill="#333333"/>
<path d="M50.0972 36.0975H44.3992V23.8751C44.3992 22.3651 44.1439 21.2358 43.6332 20.4872C43.135 19.726 42.3442 19.3454 41.2606 19.3454C39.8034 19.3454 38.7447 19.882 38.0846 20.9551C37.4246 22.0283 37.0945 23.7939 37.0945 26.2521V36.0975H31.3965V15.1714H35.7494L36.5154 17.8481H36.833C37.3934 16.8872 38.203 16.1385 39.2616 15.602C40.3203 15.0529 41.5346 14.7783 42.9046 14.7783C46.0308 14.7783 48.1481 15.8016 49.2565 17.8481H49.7609C50.3215 16.8748 51.1434 16.1197 52.227 15.5832C53.323 15.0467 54.556 14.7783 55.926 14.7783C58.2925 14.7783 60.0796 15.3897 61.2878 16.6127C62.5083 17.823 63.1186 19.7697 63.1186 22.4525V36.0975H57.4019V23.8751C57.4019 22.3651 57.1466 21.2358 56.6359 20.4872C56.1377 19.726 55.3469 19.3454 54.2634 19.3454C52.8684 19.3454 51.8222 19.8446 51.1247 20.8428C50.4397 21.8411 50.0972 23.4258 50.0972 25.597V36.0975Z" fill="#333333"/>
<path d="M73.5229 25.597C73.5229 27.6684 73.8592 29.2345 74.5317 30.2951C75.2167 31.3558 76.3253 31.8861 77.8573 31.8861C79.3767 31.8861 80.4665 31.362 81.1265 30.3138C81.7991 29.2532 82.1353 27.6809 82.1353 25.597C82.1353 23.5256 81.7991 21.9721 81.1265 20.9364C80.454 19.9007 79.3517 19.3828 77.8199 19.3828C76.3003 19.3828 75.2044 19.9007 74.5317 20.9364C73.8592 21.9596 73.5229 23.5132 73.5229 25.597ZM87.9642 25.597C87.9642 29.0036 87.0674 31.6677 85.274 33.5894C83.4804 35.511 80.9833 36.4719 77.7825 36.4719C75.7773 36.4719 74.0087 36.0352 72.4768 35.1617C70.9448 34.2757 69.7679 33.0091 68.9458 31.362C68.1238 29.7149 67.7129 27.7933 67.7129 25.597C67.7129 22.1779 68.6033 19.5202 70.3844 17.6234C72.1654 15.7267 74.6688 14.7783 77.8945 14.7783C79.8997 14.7783 81.6683 15.2151 83.2003 16.0886C84.7322 16.962 85.9091 18.2162 86.7312 19.8508C87.5532 21.4855 87.9642 23.4009 87.9642 25.597Z" fill="#333333"/>
<path d="M95.7227 11.3933C95.7227 8.62859 97.9584 6.38867 100.718 6.38867H104.013V9.58312H100.718C99.7193 9.58312 98.9111 10.3928 98.9111 11.3933V14.6942H95.7227V11.3933Z" fill="#333333"/>
<path d="M121.229 6.38867H124.523C127.283 6.38867 129.519 8.62859 129.519 11.3933V14.6942H126.33V11.3933C126.33 10.3928 125.522 9.58312 124.523 9.58312H121.229V6.38867Z" fill="#333333"/>
<path d="M98.9111 31.9443V35.2452C98.9111 36.2457 99.7193 37.0554 100.718 37.0554H104.013V40.2499H100.718C97.9584 40.2499 95.7227 38.0099 95.7227 35.2452V31.9443H98.9111Z" fill="#333333"/>
<path d="M129.519 31.9443V35.2452C129.519 38.0099 127.283 40.2499 124.523 40.2499H121.229V37.0554H124.523C125.522 37.0554 126.33 36.2457 126.33 35.2452V31.9443H129.519Z" fill="#333333"/>
</svg>
