<svg width="32" height="32" viewBox="0 0 32 32" fill="none" xmlns="http://www.w3.org/2000/svg">
<path d="M30.0006 3.42871H2.00056C1.84342 3.42871 1.71484 3.55728 1.71484 3.71443V6.00014C1.71484 6.15728 1.84342 6.28585 2.00056 6.28585H30.0006C30.1577 6.28585 30.2863 6.15728 30.2863 6.00014V3.71443C30.2863 3.55728 30.1577 3.42871 30.0006 3.42871ZM30.0006 25.7144H2.00056C1.84342 25.7144 1.71484 25.843 1.71484 26.0001V28.2859C1.71484 28.443 1.84342 28.5716 2.00056 28.5716H30.0006C30.1577 28.5716 30.2863 28.443 30.2863 28.2859V26.0001C30.2863 25.843 30.1577 25.7144 30.0006 25.7144ZM30.0006 14.5716H2.00056C1.84342 14.5716 1.71484 14.7001 1.71484 14.8573V17.143C1.71484 17.3001 1.84342 17.4287 2.00056 17.4287H30.0006C30.1577 17.4287 30.2863 17.3001 30.2863 17.143V14.8573C30.2863 14.7001 30.1577 14.5716 30.0006 14.5716Z" fill="black"/>
</svg>
