<svg width="32" height="32" viewBox="0 0 32 32" fill="none" xmlns="http://www.w3.org/2000/svg">
<path d="M4 15.9639C4 16.2265 4.05173 16.4866 4.15224 16.7292C4.25275 16.9719 4.40007 17.1924 4.58579 17.3781C4.7715 17.5638 4.99198 17.7111 5.23463 17.8116C5.47728 17.9121 5.73736 17.9639 6 17.9639C6.26264 17.9639 6.52272 17.9121 6.76537 17.8116C7.00802 17.7111 7.2285 17.5638 7.41421 17.3781C7.59993 17.1924 7.74725 16.9719 7.84776 16.7292C7.94827 16.4866 8 16.2265 8 15.9639C8 15.7012 7.94827 15.4412 7.84776 15.1985C7.74725 14.9558 7.59993 14.7354 7.41421 14.5497C7.2285 14.3639 7.00802 14.2166 6.76537 14.1161C6.52272 14.0156 6.26264 13.9639 6 13.9639C5.73736 13.9639 5.47728 14.0156 5.23463 14.1161C4.99198 14.2166 4.7715 14.3639 4.58579 14.5497C4.40007 14.7354 4.25275 14.9558 4.15224 15.1985C4.05173 15.4412 4 15.7012 4 15.9639ZM14 15.9639C14 16.4943 14.2107 17.003 14.5858 17.3781C14.9609 17.7532 15.4696 17.9639 16 17.9639C16.5304 17.9639 17.0391 17.7532 17.4142 17.3781C17.7893 17.003 18 16.4943 18 15.9639C18 15.4334 17.7893 14.9247 17.4142 14.5497C17.0391 14.1746 16.5304 13.9639 16 13.9639C15.4696 13.9639 14.9609 14.1746 14.5858 14.5497C14.2107 14.9247 14 15.4334 14 15.9639ZM24 15.9639C24 16.4943 24.2107 17.003 24.5858 17.3781C24.9609 17.7532 25.4696 17.9639 26 17.9639C26.5304 17.9639 27.0391 17.7532 27.4142 17.3781C27.7893 17.003 28 16.4943 28 15.9639C28 15.4334 27.7893 14.9247 27.4142 14.5497C27.0391 14.1746 26.5304 13.9639 26 13.9639C25.4696 13.9639 24.9609 14.1746 24.5858 14.5497C24.2107 14.9247 24 15.4334 24 15.9639Z" fill="black"/>
</svg>
