<svg width="32" height="32" viewBox="0 0 32 32" fill="none" xmlns="http://www.w3.org/2000/svg">
<g clip-path="url(#clip0_108_104)">
<path d="M30.9778 15.5323L1.10279 0.553687C0.981366 0.492973 0.84208 0.478687 0.709937 0.51083C0.563278 0.547087 0.436961 0.639979 0.358644 0.769169C0.280327 0.898358 0.256392 1.05332 0.29208 1.20012L3.37065 13.7787C3.41708 13.968 3.55637 14.1215 3.74208 14.1823L9.01708 15.993L3.74565 17.8037C3.55994 17.868 3.42065 18.018 3.37779 18.2073L0.29208 30.8037C0.259937 30.9358 0.274223 31.0751 0.334937 31.193C0.474223 31.4751 0.81708 31.5894 1.10279 31.4501L30.9778 16.5573C31.0885 16.5037 31.1778 16.4108 31.2349 16.3037C31.3742 16.018 31.2599 15.6751 30.9778 15.5323ZM3.81351 27.2251L5.60994 19.8823L16.1528 16.2644C16.2349 16.2358 16.3028 16.1715 16.3314 16.0858C16.3814 15.9358 16.3028 15.7751 16.1528 15.7215L5.60994 12.1073L3.82065 4.79297L26.2492 16.0394L3.81351 27.2251Z" fill="black"/>
</g>
<defs>
<clipPath id="clip0_108_104">
<rect width="32" height="32" fill="white"/>
</clipPath>
</defs>
</svg>
