<svg width="32" height="32" viewBox="0 0 32 32" fill="none" xmlns="http://www.w3.org/2000/svg">
<path d="M28.7503 15.1361L15.2574 3.42542C15.1539 3.33613 15.0217 3.28613 14.8824 3.28613H11.7217C11.4574 3.28613 11.336 3.6147 11.536 3.78613L24.0431 14.6433H3.14314C2.98599 14.6433 2.85742 14.7718 2.85742 14.929V17.0718C2.85742 17.229 2.98599 17.3576 3.14314 17.3576H24.0396L11.5324 28.2147C11.3324 28.3897 11.4539 28.7147 11.7181 28.7147H14.986C15.0539 28.7147 15.1217 28.6897 15.1717 28.6433L28.7503 16.8647C28.8739 16.7572 28.9731 16.6244 29.041 16.4753C29.1089 16.3262 29.1441 16.1643 29.1441 16.0004C29.1441 15.8366 29.1089 15.6746 29.041 15.5255C28.9731 15.3764 28.8739 15.2436 28.7503 15.1361Z" fill="black"/>
</svg>
